<svg width="12" height="12" viewBox="0 0 12 12" fill="none" xmlns="http://www.w3.org/2000/svg">
<path d="M0.381329 12C0.281637 12 0.183902 11.9609 0.111695 11.8881C0.0170349 11.7934 -0.0211647 11.656 0.0114447 11.5263L0.727827 8.651C0.744598 8.58383 0.779257 8.52224 0.828078 8.47342L8.89258 0.409122C9.43799 -0.136374 10.3259 -0.136374 10.8714 0.409122L11.5909 1.12856C12.1364 1.67406 12.1364 2.56194 11.5909 3.10735L3.52646 11.1716C3.47755 11.2205 3.41596 11.2556 3.34888 11.2719L0.473474 11.9883C0.442914 11.9965 0.412354 12 0.381329 12ZM1.44225 8.93796L0.904943 11.0943L3.06136 10.557L11.0515 2.56753C11.2993 2.31971 11.2993 1.91573 11.0515 1.66791L10.3321 0.948469C10.0838 0.700177 9.67968 0.700643 9.4324 0.948469L1.44225 8.93796ZM3.25674 10.902H3.26186H3.25674Z" fill="#3968F9"/>
<path d="M10.0802 4.4601C9.98247 4.4601 9.88473 4.42293 9.81048 4.3482L7.65155 2.18979C7.50238 2.04063 7.50238 1.79895 7.65155 1.64989C7.80062 1.50082 8.0423 1.50082 8.19137 1.64989L10.3504 3.80886C10.4995 3.95793 10.4995 4.1996 10.3504 4.34867C10.275 4.42293 10.1774 4.4601 10.0802 4.4601Z" fill="#3968F9"/>
<path d="M3.25677 11.2834C3.15903 11.2834 3.06139 11.2462 2.98714 11.1714L0.828112 9.01255C0.679041 8.86339 0.679041 8.62171 0.828112 8.47264C0.977184 8.32357 1.21887 8.32357 1.36803 8.47264L3.52696 10.6316C3.67603 10.7807 3.67603 11.0224 3.52696 11.1714C3.45215 11.2462 3.3545 11.2834 3.25677 11.2834Z" fill="#3968F9"/>
</svg>
