<svg width="39" height="31" viewBox="0 0 39 31" fill="none" xmlns="http://www.w3.org/2000/svg">
<path d="M26.3098 0H4.73248C2.14186 0 0.041748 2.1029 0.041748 4.69697V26.303C0.041748 28.8971 2.14186 31 4.73248 31H26.3098C28.9004 31 31.0006 28.8971 31.0006 26.303V4.69697C31.0006 2.1029 28.9004 0 26.3098 0Z" fill="#031A61"/>
<path d="M21.3739 4.59235C18.4803 3.03125 15.0888 2.67515 11.9347 3.60128C8.78069 4.5274 6.11831 6.6611 4.52488 9.53973C2.93145 12.4184 2.5354 15.8099 3.42261 18.979C4.30982 22.1481 6.40877 24.8392 9.26437 26.469C12.158 28.0301 15.5495 28.3862 18.7036 27.4601C21.8576 26.534 24.52 24.4003 26.1134 21.5216C27.7069 18.643 28.1029 15.2515 27.2157 12.0824C26.3285 8.9133 24.2295 6.22212 21.3739 4.59235ZM12.4137 5.38647C14.4976 4.79054 16.7143 4.85128 18.7625 5.56043C20.8108 6.26959 22.5914 7.59279 23.8627 9.35036L17.8874 12.8554C17.4196 12.4041 16.8415 12.084 16.2112 11.927C15.5808 11.7701 14.9204 11.7818 14.296 11.9611C13.6716 12.1404 13.1053 12.4809 12.6538 12.9485C12.2023 13.4161 11.8815 13.9943 11.7236 14.6252L4.80208 14.8466C4.94539 12.6774 5.75311 10.6052 7.1152 8.91233C8.47729 7.21945 10.3275 5.98824 12.4137 5.38647ZM15.8028 17.2212C15.4689 17.3171 15.1141 17.3117 14.7833 17.2056C14.4525 17.0996 14.1605 16.8977 13.9443 16.6255C13.728 16.3533 13.5973 16.023 13.5685 15.6764C13.5398 15.3298 13.6143 14.9825 13.7827 14.6783C13.9511 14.3741 14.2058 14.1267 14.5146 13.9674C14.8234 13.8082 15.1724 13.7442 15.5175 13.7836C15.8626 13.8229 16.1883 13.9639 16.4534 14.1886C16.7185 14.4134 16.9111 14.7118 17.0069 15.0461C17.1347 15.4944 17.0798 15.9752 16.854 16.383C16.6283 16.7908 16.2502 17.0922 15.8028 17.2212ZM5.18874 18.4394C5.03518 17.9026 4.92422 17.3544 4.8569 16.8001L11.7621 16.5764C11.992 17.3522 12.4682 18.0318 13.1186 18.512C13.769 18.9923 14.5581 19.247 15.3662 19.2376L17.2743 25.9008C14.6939 26.3855 12.0257 25.8895 9.79088 24.5098C7.55609 23.13 5.91521 20.9657 5.18874 18.4394ZM19.1491 25.3625L17.2423 18.7038C17.9331 18.2828 18.4678 17.6476 18.7651 16.8946C19.0624 16.1416 19.1061 15.312 18.8896 14.5319L24.8523 11.0373C25.4672 12.3457 25.8071 13.7667 25.8507 15.2121C25.8944 16.6574 25.641 18.0964 25.1062 19.4396C24.5715 20.7828 23.7667 22.0017 22.742 23.0206C21.7173 24.0394 20.4943 24.8366 19.1491 25.3625Z" fill="#F9FAFB"/>
<path d="M36.3374 15.9946C36.3153 16.0057 36.2861 16.0112 36.25 16.0112C36.153 16.0112 36.1045 15.9647 36.1045 15.8716V15.5889H36.021V15.5H36.1045V15.3843L36.2178 15.3521V15.5H36.3374V15.5889H36.2178V15.8389C36.2178 15.8685 36.2231 15.8896 36.2339 15.9023C36.2446 15.915 36.2625 15.9214 36.2876 15.9214C36.3068 15.9214 36.3234 15.9159 36.3374 15.9048V15.9946ZM36.7251 15.6079C36.7114 15.5972 36.6917 15.5918 36.666 15.5918C36.6325 15.5918 36.6045 15.6069 36.582 15.6372C36.5596 15.6675 36.5483 15.7087 36.5483 15.7607V16H36.4351V15.5H36.5483V15.603H36.5503C36.5614 15.5679 36.5783 15.5405 36.6011 15.521C36.6242 15.5011 36.6499 15.4912 36.6782 15.4912C36.6987 15.4912 36.7144 15.4943 36.7251 15.5005V15.6079ZM37.2197 15.7808H36.8789C36.8802 15.827 36.8944 15.8626 36.9214 15.8877C36.9487 15.9128 36.9862 15.9253 37.0337 15.9253C37.0871 15.9253 37.1361 15.9093 37.1807 15.8774V15.9688C37.1351 15.9974 37.0749 16.0117 37 16.0117C36.9264 16.0117 36.8687 15.9891 36.8267 15.9438C36.785 15.8983 36.7642 15.8343 36.7642 15.752C36.7642 15.6742 36.7871 15.6108 36.833 15.562C36.8792 15.5129 36.9365 15.4883 37.0049 15.4883C37.0732 15.4883 37.1261 15.5103 37.1636 15.5542C37.201 15.5981 37.2197 15.6592 37.2197 15.7373V15.7808ZM37.1104 15.7007C37.11 15.66 37.1004 15.6284 37.0815 15.606C37.0627 15.5832 37.0366 15.5718 37.0034 15.5718C36.9709 15.5718 36.9432 15.5837 36.9204 15.6074C36.8979 15.6312 36.8841 15.6623 36.8789 15.7007H37.1104Z" fill="#6B8EFA"/>
<path d="M38.0752 16H37.9619V15.7275C37.9619 15.6751 37.9544 15.6372 37.9395 15.6138C37.9248 15.5903 37.8999 15.5786 37.8647 15.5786C37.8351 15.5786 37.8099 15.5934 37.7891 15.623C37.7686 15.6527 37.7583 15.6882 37.7583 15.7295V16H37.6445V15.7183C37.6445 15.6252 37.6117 15.5786 37.5459 15.5786C37.5153 15.5786 37.4901 15.5926 37.4702 15.6206C37.4507 15.6486 37.4409 15.6849 37.4409 15.7295V16H37.3276V15.5H37.4409V15.5791H37.4429C37.479 15.5186 37.5316 15.4883 37.6006 15.4883C37.6351 15.4883 37.6652 15.4979 37.6909 15.5171C37.717 15.536 37.7347 15.5609 37.7441 15.5918C37.7812 15.5228 37.8366 15.4883 37.9102 15.4883C38.0202 15.4883 38.0752 15.5562 38.0752 15.6919V16ZM38.1821 15.9844V15.8794C38.2244 15.9116 38.2712 15.9277 38.3223 15.9277C38.3906 15.9277 38.4248 15.9076 38.4248 15.8672C38.4248 15.8558 38.4219 15.8462 38.416 15.8384C38.4102 15.8302 38.4022 15.8231 38.3921 15.8169C38.3823 15.8107 38.3706 15.8052 38.3569 15.8003C38.3436 15.7954 38.3286 15.7899 38.312 15.7837C38.2915 15.7756 38.2729 15.7669 38.2563 15.7578C38.2401 15.7487 38.2264 15.7384 38.2153 15.7271C38.2046 15.7153 38.1965 15.7021 38.1909 15.6875C38.1854 15.6729 38.1826 15.6558 38.1826 15.6362C38.1826 15.6121 38.1883 15.591 38.1997 15.5728C38.2111 15.5542 38.2264 15.5387 38.2456 15.5264C38.2648 15.5137 38.2866 15.5042 38.311 15.498C38.3354 15.4915 38.3607 15.4883 38.3867 15.4883C38.4329 15.4883 38.4743 15.4953 38.5107 15.5093V15.6084C38.4756 15.5843 38.4352 15.5723 38.3896 15.5723C38.3753 15.5723 38.3623 15.5737 38.3506 15.5767C38.3392 15.5796 38.3294 15.5837 38.3213 15.5889C38.3132 15.5941 38.3068 15.6004 38.3022 15.6079C38.2977 15.6151 38.2954 15.623 38.2954 15.6318C38.2954 15.6426 38.2977 15.6517 38.3022 15.6592C38.3068 15.6667 38.3135 15.6733 38.3223 15.6792C38.3314 15.6847 38.3421 15.6899 38.3545 15.6948C38.3672 15.6994 38.3817 15.7044 38.3979 15.71C38.4194 15.7188 38.4386 15.7277 38.4556 15.7368C38.4728 15.7459 38.4875 15.7563 38.4995 15.7681C38.5116 15.7795 38.5208 15.7928 38.5273 15.8081C38.5339 15.8231 38.5371 15.841 38.5371 15.8618C38.5371 15.8872 38.5312 15.9093 38.5195 15.9282C38.5078 15.9471 38.4922 15.9627 38.4727 15.9751C38.4531 15.9875 38.4305 15.9966 38.4048 16.0024C38.3794 16.0086 38.3525 16.0117 38.3242 16.0117C38.2695 16.0117 38.2222 16.0026 38.1821 15.9844Z" fill="#031A61"/>
</svg>
