<svg width="111" height="39" viewBox="0 0 111 39" fill="none" xmlns="http://www.w3.org/2000/svg">
<path d="M26.3099 4H4.73257C2.14195 4 0.0418396 6.1029 0.0418396 8.69697V30.303C0.0418396 32.8971 2.14195 35 4.73257 35H26.3099C28.9005 35 31.0006 32.8971 31.0006 30.303V8.69697C31.0006 6.1029 28.9005 4 26.3099 4Z" fill="#031A61"/>
<path d="M21.3739 8.59223C18.4803 7.03112 15.0888 6.67503 11.9347 7.60116C8.78069 8.52728 6.11831 10.661 4.52488 13.5396C2.93145 16.4182 2.5354 19.8098 3.42261 22.9789C4.30982 26.1479 6.40877 28.8391 9.26437 30.4689C12.158 32.03 15.5495 32.3861 18.7036 31.46C21.8576 30.5338 24.52 28.4001 26.1134 25.5215C27.7069 22.6429 28.1029 19.2513 27.2157 16.0823C26.3285 12.9132 24.2295 10.222 21.3739 8.59223ZM12.4137 9.38635C14.4976 8.79042 16.7143 8.85116 18.7625 9.56031C20.8108 10.2695 22.5914 11.5927 23.8627 13.3502L17.8874 16.8553C17.4196 16.404 16.8415 16.0839 16.2112 15.9269C15.5808 15.77 14.9204 15.7817 14.296 15.961C13.6716 16.1403 13.1053 16.4808 12.6538 16.9484C12.2023 17.4159 11.8815 17.9942 11.7236 18.6251L4.80208 18.8465C4.94539 16.6773 5.75311 14.6051 7.1152 12.9122C8.47729 11.2193 10.3275 9.98812 12.4137 9.38635ZM15.8028 21.2211C15.4689 21.317 15.1141 21.3116 14.7833 21.2055C14.4525 21.0995 14.1605 20.8976 13.9443 20.6254C13.728 20.3532 13.5973 20.0229 13.5685 19.6763C13.5398 19.3297 13.6143 18.9823 13.7827 18.6781C13.9511 18.3739 14.2058 18.1266 14.5146 17.9673C14.8234 17.8081 15.1724 17.7441 15.5175 17.7834C15.8626 17.8228 16.1883 17.9638 16.4534 18.1885C16.7185 18.4132 16.9111 18.7116 17.0069 19.046C17.1347 19.4943 17.0798 19.9751 16.854 20.3829C16.6283 20.7907 16.2502 21.0921 15.8028 21.2211ZM5.18874 22.4393C5.03518 21.9024 4.92422 21.3543 4.8569 20.7999L11.7621 20.5763C11.992 21.3521 12.4682 22.0316 13.1186 22.5119C13.769 22.9921 14.5581 23.2469 15.3662 23.2375L17.2743 29.9007C14.6939 30.3854 12.0257 29.8894 9.79088 28.5097C7.55609 27.1299 5.91521 24.9655 5.18874 22.4393ZM19.1491 29.3624L17.2423 22.7036C17.9331 22.2827 18.4678 21.6475 18.7651 20.8945C19.0624 20.1415 19.1061 19.3119 18.8896 18.5318L24.8523 15.0372C25.4672 16.3456 25.8071 17.7666 25.8507 19.2119C25.8944 20.6573 25.641 22.0962 25.1062 23.4395C24.5715 24.7827 23.7667 26.0016 22.742 27.0204C21.7173 28.0393 20.4943 28.8364 19.1491 29.3624Z" fill="#F9FAFB"/>
<path d="M45.7847 31.8442C45.1427 32.1652 44.2979 32.3257 43.25 32.3257C40.4368 32.3257 39.0303 30.9757 39.0303 28.2759V20.0771H36.6089V17.5H39.0303V14.144L42.3154 13.2095V17.5H45.7847V20.0771H42.3154V27.3271C42.3154 28.1862 42.4712 28.7998 42.7827 29.168C43.0942 29.5361 43.6134 29.7202 44.3403 29.7202C44.8973 29.7202 45.3787 29.5597 45.7847 29.2388V31.8442ZM57.0278 20.6294C56.6313 20.3179 56.0602 20.1621 55.3145 20.1621C54.3421 20.1621 53.5303 20.6011 52.8789 21.479C52.2275 22.3569 51.9019 23.5511 51.9019 25.0615V32H48.6167V17.5H51.9019V20.4878H51.9585C52.2795 19.4683 52.7703 18.6753 53.4312 18.1089C54.1014 17.533 54.8472 17.2451 55.6685 17.2451C56.2632 17.2451 56.7163 17.3348 57.0278 17.5142V20.6294ZM71.3721 25.6421H61.4883C61.526 26.9826 61.9367 28.0163 62.7202 28.7432C63.5132 29.4701 64.5988 29.8335 65.9771 29.8335C67.5252 29.8335 68.946 29.3709 70.2393 28.4458V31.0938C68.9176 31.9245 67.1712 32.3398 65 32.3398C62.8665 32.3398 61.1909 31.6838 59.9731 30.3716C58.7648 29.05 58.1606 27.195 58.1606 24.8066C58.1606 22.5505 58.8262 20.7144 60.1572 19.2983C61.4977 17.8729 63.1592 17.1602 65.1416 17.1602C67.124 17.1602 68.658 17.7974 69.7437 19.0718C70.8293 20.3462 71.3721 22.1162 71.3721 24.3818V25.6421ZM68.2002 23.3198C68.1908 22.1398 67.9123 21.2241 67.3647 20.5728C66.8172 19.9119 66.062 19.5815 65.0991 19.5815C64.1551 19.5815 63.3527 19.9261 62.6919 20.6152C62.0405 21.3044 61.6393 22.2059 61.4883 23.3198H68.2002Z" fill="#6B8EFA"/>
<path d="M96.1807 32H92.8955V24.0986C92.8955 22.5788 92.6784 21.479 92.2441 20.7993C91.8193 20.1196 91.0972 19.7798 90.0776 19.7798C89.2186 19.7798 88.487 20.2093 87.8828 21.0684C87.2881 21.9274 86.9907 22.9564 86.9907 24.1553V32H83.6914V23.8296C83.6914 21.1297 82.738 19.7798 80.8311 19.7798C79.9437 19.7798 79.2121 20.1857 78.6362 20.9976C78.0698 21.8094 77.7866 22.862 77.7866 24.1553V32H74.5015V17.5H77.7866V19.7939H77.8433C78.8911 18.0381 80.4157 17.1602 82.417 17.1602C83.4176 17.1602 84.2909 17.4386 85.0366 17.9956C85.7918 18.5431 86.3063 19.2653 86.5801 20.1621C87.6562 18.1608 89.2611 17.1602 91.3945 17.1602C94.5853 17.1602 96.1807 19.1284 96.1807 23.0649V32ZM99.2817 31.5469V28.5024C100.509 29.437 101.864 29.9043 103.346 29.9043C105.328 29.9043 106.319 29.319 106.319 28.1484C106.319 27.818 106.234 27.5396 106.064 27.313C105.895 27.077 105.663 26.8693 105.371 26.6899C105.087 26.5106 104.748 26.3501 104.351 26.2085C103.964 26.0669 103.53 25.9064 103.048 25.7271C102.454 25.491 101.916 25.2409 101.434 24.9766C100.962 24.7122 100.566 24.4149 100.245 24.0845C99.9331 23.7446 99.6971 23.3623 99.5366 22.9375C99.3761 22.5127 99.2959 22.0171 99.2959 21.4507C99.2959 20.7521 99.4611 20.1385 99.7915 19.6099C100.122 19.0718 100.566 18.6234 101.123 18.2646C101.68 17.8965 102.312 17.6227 103.02 17.4434C103.728 17.2546 104.46 17.1602 105.215 17.1602C106.555 17.1602 107.754 17.3631 108.812 17.769V20.6436C107.792 19.945 106.621 19.5957 105.3 19.5957C104.884 19.5957 104.507 19.6382 104.167 19.7231C103.837 19.8081 103.553 19.9261 103.317 20.0771C103.081 20.2282 102.897 20.4123 102.765 20.6294C102.633 20.8371 102.567 21.0684 102.567 21.3232C102.567 21.6348 102.633 21.8991 102.765 22.1162C102.897 22.3333 103.091 22.5269 103.346 22.6968C103.61 22.8573 103.922 23.0083 104.28 23.1499C104.648 23.2821 105.069 23.4284 105.541 23.5889C106.164 23.8438 106.721 24.1034 107.211 24.3677C107.712 24.632 108.137 24.9341 108.486 25.2739C108.835 25.6043 109.104 25.9914 109.293 26.4351C109.482 26.8693 109.576 27.3885 109.576 27.9927C109.576 28.729 109.406 29.3709 109.066 29.9185C108.727 30.466 108.273 30.9191 107.707 31.2778C107.141 31.6366 106.485 31.9009 105.739 32.0708C105.002 32.2502 104.224 32.3398 103.402 32.3398C101.816 32.3398 100.443 32.0755 99.2817 31.5469Z" fill="#031A61"/>
</svg>
