<svg width="12" height="10" viewBox="0 0 12 10" fill="none" xmlns="http://www.w3.org/2000/svg">
<path d="M2.68585 10C2.55438 10 2.42382 9.96433 2.3124 9.89427C2.10484 9.76347 2.00789 9.53864 2.06438 9.32169L2.83637 6.36458L0.218262 4.36802C0.0258136 4.22193 -0.0477051 3.99057 0.0313069 3.77888C0.110319 3.56758 0.32529 3.41799 0.579813 3.39753L4.04389 3.12405L5.41346 0.337006C5.51444 0.132239 5.74443 0 5.99996 0C6.25549 0 6.48548 0.132239 6.58646 0.336529L7.95603 3.12405L11.4196 3.39753C11.6746 3.41751 11.8896 3.56758 11.9686 3.77888C12.0476 3.99018 11.9746 4.22193 11.7821 4.36802L9.16401 6.36419L9.936 9.32121C9.99258 9.53864 9.89553 9.76347 9.68807 9.89387C9.48106 10.0243 9.20503 10.0343 8.98703 9.92039L5.99996 8.36815L3.01289 9.92126C2.9119 9.97341 2.79938 10 2.68585 10ZM5.99996 7.69947C6.11349 7.69947 6.22592 7.72598 6.32699 7.77813L9.14606 9.2443L8.41747 6.45327C8.36547 6.25464 8.44301 6.04724 8.61953 5.91285L11.0916 4.02759L7.82099 3.76933C7.58551 3.75062 7.38299 3.62188 7.29098 3.4332L5.99996 0.803067L4.70739 3.43359C4.61638 3.62101 4.41386 3.74974 4.17893 3.76845L0.907854 4.02672L3.37984 5.91198C3.55691 6.04677 3.63436 6.25376 3.5819 6.45288L2.85386 9.24383L5.67293 7.77813C5.77391 7.72598 5.88643 7.69947 5.99996 7.69947ZM4.01743 3.17795C4.01743 3.17795 4.01743 3.17843 4.01688 3.17883L4.01743 3.17795ZM7.98148 3.17668L7.98203 3.17756C7.98203 3.17708 7.98203 3.17708 7.98148 3.17668Z" fill="#3D3D3D"/>
</svg>
